<svg xmlns="http://www.w3.org/2000/svg" width="1080" height="1080" viewBox="0 0 1080 1080" xml:space="preserve"><rect width="100%" height="100%" fill="transparent"/><g transform="translate(540 540)"/><g transform="translate(540 540)"/><path style="stroke:#000;stroke-width:0;stroke-dasharray:none;stroke-linecap:butt;stroke-dashoffset:0;stroke-linejoin:miter;stroke-miterlimit:4;fill:#fff;fill-rule:nonzero;opacity:1" vector-effect="non-scaling-stroke" transform="translate(60.53 60.885)scale(35.49)" d="M13.5 26.5c1.412 0 2.794-.225 4.107-.662l-.316-.949a12 12 0 0 1-3.792.611v1m6.06-1.495a13 13 0 0 0 3.321-2.504l-.721-.692a12 12 0 0 1-3.067 2.312l.467.884m4.66-4.147a13 13 0 0 0 1.777-3.762l-.961-.276a12 12 0 0 1-1.64 3.471l.824.567m2.184-5.761a13.2 13.2 0 0 0-.158-4.171l-.98.197a12.1 12.1 0 0 1 .146 3.853l.993.122m-.738-6.189a13 13 0 0 0-2.075-3.605l-.776.631c.812.999 1.46 2.122 1.916 3.327l.935-.353m-3.539-5.133a13 13 0 0 0-3.512-2.229l-.394.919a12 12 0 0 1 3.242 2.058l.664-.748M16.664.89a13 13 0 0 0-4.178-.349l.077.997a12 12 0 0 1 3.859.322l.243-.97M10.427.868a12.9 12.9 0 0 0-3.832 1.619l.532.847a12 12 0 0 1 3.536-1.494l-.236-.972M4.91 3.746a13.1 13.1 0 0 0-2.643 3.212l.864.504a12 12 0 0 1 2.441-2.966l-.661-.75m-3.54 5.076a13 13 0 0 0-.854 4.072l.999.046c.06-1.3.328-2.564.788-3.758l-.933-.36m-.78 6.202a12.9 12.9 0 0 0 1.14 4l.905-.425a11.9 11.9 0 0 1-1.052-3.692l-.993.116m2.177 5.814a13 13 0 0 0 2.866 3.01l.606-.796a12 12 0 0 1-2.646-2.783l-.825.565m4.665 4.164c1.23.65 2.559 1.1 3.943 1.328l.162-.987a11.9 11.9 0 0 1-3.638-1.225l-.468.884m6.02 1.501h.048v-1h-.044l-.004 1"/><path style="stroke:#000;stroke-width:0;stroke-dasharray:none;stroke-linecap:butt;stroke-dashoffset:0;stroke-linejoin:miter;stroke-miterlimit:4;fill:#fff;fill-rule:nonzero;opacity:1" vector-effect="non-scaling-stroke" transform="translate(101.17 101.17)scale(36.57)" d="M12 4a1 1 0 0 1 1 1v6h6a1 1 0 0 1 0 2h-6v6a1 1 0 0 1-2 0v-6H5a1 1 0 0 1 0-2h6V5a1 1 0 0 1 1-1z"/></svg>