<svg width="496.6" height="107.013" viewBox="0 0 370 79.732" class="looka-1j8o68f"><g xmlns="http://www.w3.org/2000/svg" fill="#fff"><path d="m35.003 69.064.664-.665L2.27 35.003 35.003 2.27l32.726 32.733-33.39 33.39zl.664-.665zl.664.664 34.055-34.055a.94.94 0 0 0 0-1.329L35.667.277a.934.934 0 0 0-1.329 0L.278 34.338a.934.934 0 0 0 0 1.329l34.06 34.061c.176.175.42.276.665.276s.488-.1.664-.276z"/><path d="m35.003 58.742.664.664 23.74-23.733a.94.94 0 0 0 0-1.329L35.666 10.6a.94.94 0 0 0-1.329 0l-23.733 23.74a.934.934 0 0 0 0 1.328l23.733 23.74a.94.94 0 0 0 1.329 0zl.664-.664-23.069-23.075 22.405-22.405 22.41 22.405-23.075 23.075zl.664-.664zm13.417-23.74-.664-.664-12.753 12.754-12.083-12.09L35.003 22.92 47.75 35.673zl-.664-.664zl.664-.664-13.41-13.417a.94.94 0 0 0-1.329 0L20.926 34.338a.934.934 0 0 0 0 1.329l13.411 13.411c.37.37.965.37 1.329 0l13.417-13.411a.934.934 0 0 0 0-1.329z"/><path d="m31.913 35.003.664.664 2.432-2.432 1.767 1.768-1.767 1.767-2.432-2.432zl.664.664zl-.664.664 3.095 3.096a.94.94 0 0 0 1.329 0l3.096-3.096a.94.94 0 0 0 0-1.329l-3.096-3.096a.934.934 0 0 0-1.329 0l-3.095 3.096a.934.934 0 0 0 0 1.329z"/><path d="m35.003 69.057.664-.664L6.475 39.208a.934.934 0 0 0-1.328 0L.283 44.07a.94.94 0 0 0 0 1.329l34.055 34.06a.94.94 0 0 0 1.329 0L69.728 45.4a.94.94 0 0 0 0-1.329l-4.863-4.863a.934.934 0 0 0-1.329 0L34.344 68.399zl.664-.664zl.664.665 28.527-28.528 3.535 3.535L35.003 77.46 2.276 44.735l3.535-3.534 28.527 28.527c.37.37.965.37 1.329 0z"/></g><path d="m106.875 20.379 6.373 38.911c.49 3.064-6.434 3.37-6.802 1.164l-1.225-7.353h-7.17l-1.225 7.353c-.307 1.839-7.292 1.9-6.802-1.164l6.434-38.911c.306-1.838 10.172-1.655 10.417 0m-2.819 25.798-2.39-14.646-2.45 14.646zM144.5 20.44v26.35c0 20.22-23.898 20.343-23.898-.062V20.38c0-1.838 6.986-1.838 6.986 0v26.35c0 11.213 9.927 11.274 9.927.06V20.44c0-1.838 6.985-1.838 6.985 0m12.256-1.348h8.272c10.233 0 10.54 42.894.613 42.894h-8.701c-3.86 0-3.86 0-3.86-3.37V22.462c0-3.309 0-3.309 3.676-3.37m5.76 6.924h-.061c-2.452 0-2.452 0-2.452 2.329v24.388c0 2.268 0 2.268 2.574 2.268h.368c3.983 0 3.799-28.985-.43-28.985m18.935 34.622V20.38c0-1.838 6.986-1.838 6.986 0v40.26c0 1.837-6.986 1.837-6.986 0m14.462-41.547h24.388c1.839 0 1.839 6.863 0 6.863l-8.701.123v34.56c0 1.838-6.986 1.838-6.986 0v-34.56l-8.701-.123c-1.838 0-1.838-6.863 0-6.863m51.963 8.64c.184.674.061 25.553-.184 26.472-1.103 4.718-4.412 7.782-9.62 7.782h-1.594c-5.147 0-8.456-3.064-9.62-7.782-.245-.92-.307-25.798-.184-26.472.858-5.147 4.044-8.517 9.804-8.64h1.594c5.82.123 8.946 3.493 9.804 8.64m-12.317 26.9a3.77 3.77 0 0 0 3.432 0c1.777-.857 2.083-3.002 2.144-4.472V30.98c0-1.47-.367-3.615-2.144-4.473a3.77 3.77 0 0 0-3.432 0c-1.777.858-2.144 3.002-2.144 4.473v19.18c.06 1.47.367 3.615 2.144 4.473m42.71 3.86c1.287 3.064-5.576 4.535-6.372 2.697l-.368-.858c-2.022-4.841-4.228-10.356-6.25-15.258h-3.003v15.564c0 1.838-6.986 1.838-6.986 0V22.953c0-2.88.062-3.8 4.351-3.86h6.312c2.206 0 4.657.06 6.556 1.286 4.167 2.635 5.454 7.292 5.393 12.01-.062 3.922-.613 7.844-4.473 10.724-.43.245-.797.49-1.165.735 1.961 4.657 4.106 9.988 6.005 14.645m-15.993-20.405h5.27c2.819 0 3.248-3.431 3.37-4.412.061-.674.061-3.125-.061-4.29-.245-2.267-1.103-3.43-3.922-3.43h-4.657zm24.756 22.55V20.38c0-1.838 6.986-1.838 6.986 0v40.26c0 1.837-6.986 1.837-6.986 0m39.463-40.199v26.35c0 20.22-23.899 20.343-23.899-.062V20.38c0-1.838 6.986-1.838 6.986 0v26.35c0 11.213 9.927 11.274 9.927.06V20.44c0-1.838 6.986-1.838 6.986 0m43.506.98v39.218c0 1.838-6.924 1.838-6.924 0V40.294c-7.108 19.793-7.23 20.038-7.353 20.283-.797 1.838-5.454 1.838-6.25 0-.123-.245-.246-.49-7.415-20.528v20.59c0 1.837-6.986 1.837-6.986 0V21.42c0-3.003 6.19-2.88 6.802-1.226l10.724 28.188 10.54-28.188c.612-1.654 6.862-1.838 6.862 1.226" fill="#fff"/></svg>