<?xml version="1.0" encoding="iso-8859-1"?>
<!-- Generator: Adobe Illustrator 16.0.0, SVG Export Plug-In . SVG Version: 6.00 Build 0)  -->
<!DOCTYPE svg PUBLIC "-//W3C//DTD SVG 1.1//EN" "http://www.w3.org/Graphics/SVG/1.1/DTD/svg11.dtd">
<!-- License: CC0. Made by SVG Repo: https://www.svgrepo.com/svg/170305/student -->
<svg version="1.1" fill="#17b978" id="Capa_1" xmlns="http://www.w3.org/2000/svg" xmlns:xlink="http://www.w3.org/1999/xlink" x="0px" y="0px"
     width="32.014px" height="32.014px" viewBox="0 0 32.014 32.014" style="enable-background:new 0 0 32.014 32.014;"
     xml:space="preserve">
<g>
	<g>
		<path d="M23.981,18.383H8.07c-2.943,0-5.346,2.354-5.346,5.297v8.334h10.484l1.575-8.578c0.059-0.321,0.34-0.558,0.668-0.558
			l-1.46-2.485c-0.064-0.109-0.065-0.246-0.002-0.355c0.064-0.109,0.181-0.178,0.308-0.178h4.012c0.129,0,0.247,0.068,0.312,0.181
			c0.062,0.112,0.061,0.249-0.007,0.356l-1.512,2.484h0.006c0.323,0,0.604,0.229,0.666,0.547l1.713,8.586h9.802v-8.332
			C29.283,20.734,26.924,18.383,23.981,18.383z"/>
        <circle cx="16.025" cy="7.635" r="7.635"/>
	</g>
</g>
</svg>
